<?xml version="1.0" standalone="no"?>
<!DOCTYPE svg PUBLIC "-//W3C//DTD SVG 20010904//EN"
 "http://www.w3.org/TR/2001/REC-SVG-20010904/DTD/svg10.dtd">
<svg version="1.0" xmlns="http://www.w3.org/2000/svg"
 width="225.000000pt" height="225.000000pt" viewBox="0 0 225.000000 225.000000"
 preserveAspectRatio="xMidYMid meet">
<metadata>
Created by potrace 1.11, written by Peter Selinger 2001-2013
</metadata>
<g transform="translate(0.000000,225.000000) scale(0.100000,-0.100000)"
fill="#000000" stroke="none">
<path d="M0 1125 l0 -1125 1125 0 1125 0 0 1125 0 1125 -1125 0 -1125 0 0
-1125z m210 920 c79 -19 147 -38 150 -43 4 -4 22 -49 40 -99 l32 -93 904 0
c870 0 904 -1 904 -18 0 -22 -229 -1015 -236 -1021 -2 -3 -271 -7 -598 -9
l-593 -5 32 -86 32 -86 49 -6 c66 -8 106 -30 145 -79 l32 -40 213 0 213 0 53
53 c54 54 84 67 153 67 48 0 96 -19 134 -54 45 -42 61 -83 61 -159 0 -114 -74
-195 -188 -203 -79 -7 -145 30 -187 103 l-30 52 -205 1 -205 0 -27 -50 c-67
-121 -224 -144 -322 -47 -71 71 -83 156 -36 251 l22 43 -249 686 -248 686 -90
21 c-172 40 -165 34 -143 129 9 39 15 50 27 46 9 -2 81 -20 161 -40z"/>
<path d="M491 1658 c0 -7 24 -76 52 -152 50 -135 54 -140 86 -149 60 -15 61
-13 61 158 l0 155 -100 0 c-74 0 -100 -3 -99 -12z"/>
<path d="M760 1510 l0 -160 110 0 110 0 0 160 0 160 -110 0 -110 0 0 -160z"/>
<path d="M1052 1513 l3 -158 110 0 110 0 3 158 3 157 -116 0 -116 0 3 -157z"/>
<path d="M1350 1510 l0 -160 110 0 110 0 0 160 0 160 -110 0 -110 0 0 -160z"/>
<path d="M1640 1510 l0 -160 110 0 110 0 0 160 0 160 -110 0 -110 0 0 -160z"/>
<path d="M1930 1510 l0 -160 30 0 c22 0 33 6 40 23 8 18 70 278 70 293 0 2
-31 4 -70 4 l-70 0 0 -160z"/>
<path d="M632 1268 c3 -7 15 -43 27 -80 13 -38 25 -68 27 -68 2 0 4 36 4 80
l0 80 -31 0 c-21 0 -30 -4 -27 -12z"/>
<path d="M760 1095 l0 -185 110 0 110 0 0 185 0 185 -110 0 -110 0 0 -185z"/>
<path d="M1050 1095 l0 -185 115 0 115 0 0 185 0 185 -115 0 -115 0 0 -185z"/>
<path d="M1350 1095 l0 -185 110 0 110 0 0 185 0 185 -110 0 -110 0 0 -185z"/>
<path d="M1640 1095 l0 -185 110 0 110 0 0 185 0 185 -110 0 -110 0 0 -185z"/>
<path d="M1931 1178 l1 -103 18 75 c33 134 33 130 5 130 l-25 0 1 -102z"/>
</g>
</svg>
